<svg width="23" height="25" viewBox="0 0 23 25" fill="none" xmlns="http://www.w3.org/2000/svg">
<path fill-rule="evenodd" clip-rule="evenodd" d="M15.6547 3.99113C16.6411 2.93488 17.306 1.46374 17.1241 0C15.7026 0.0500005 13.9829 0.838941 12.9637 1.89394C12.0484 2.83018 11.2495 4.32616 11.4643 5.76116C13.0499 5.8699 14.6683 5.04861 15.6547 3.99113ZM19.2104 13.2814C19.2501 17.0651 22.959 18.3238 23 18.34C22.9699 18.4288 22.4076 20.1335 21.0464 21.896C19.8684 23.4185 18.6467 24.9348 16.7218 24.9673C14.8311 24.9985 14.2223 23.9748 12.0594 23.9748C9.89781 23.9748 9.22198 24.9347 7.43252 24.9984C5.57465 25.0597 4.15868 23.3512 2.97254 21.8337C0.545553 18.73 -1.30821 13.0627 1.18172 9.23776C2.41847 7.33901 4.62793 6.13479 7.02756 6.10479C8.85122 6.07354 10.5736 7.19123 11.6886 7.19123C12.8036 7.19123 14.8968 5.84748 17.0967 6.04498C18.0174 6.07873 20.6031 6.37363 22.2626 8.52486C22.1285 8.59861 19.1776 10.1189 19.2104 13.2814Z" fill="black"/>
</svg>
