<svg width="25" height="25" viewBox="0 0 25 25" fill="none" xmlns="http://www.w3.org/2000/svg">
<path d="M24.7125 10.2291H12.8073V15.0521H19.665C19.0261 18.125 16.3533 19.8854 12.8073 19.8854C10.805 19.8854 8.88464 19.1073 7.46877 17.7222C6.05289 16.3372 5.25746 14.4587 5.25746 12.5C5.25746 10.5412 6.05289 8.66272 7.46877 7.27769C8.88464 5.89266 10.805 5.11455 12.8073 5.11455C14.5231 5.11692 16.1855 5.69823 17.514 6.76038L21.2304 3.12497C19.6788 1.78642 17.8182 0.836388 15.8084 0.356514C13.7987 -0.12336 11.6998 -0.118729 9.6923 0.370008C7.68477 0.858746 5.82855 1.81698 4.28316 3.16236C2.73776 4.50774 1.5494 6.20005 0.820176 8.09387C0.0909538 9.98769 -0.15732 12.0264 0.0966883 14.0348C0.350697 16.0432 1.09939 17.9612 2.27844 19.6241C3.45749 21.287 5.03163 22.6449 6.86561 23.5813C8.69959 24.5177 10.7386 25.0046 12.8073 25C19.1965 25 25 20.4583 25 12.5C24.9937 11.7347 24.8972 10.9728 24.7125 10.2291Z" fill="black"/>
</svg>
