<svg width="15" height="17" viewBox="0 0 15 17" fill="none" xmlns="http://www.w3.org/2000/svg">
<path d="M4.65533 16H1C1 12.7783 3.54574 10.1667 6.68607 10.1667C6.82262 10.1667 6.95803 10.1716 7.09222 10.1813M9.93525 4.33333C9.93525 6.17428 8.48051 7.66667 6.68607 7.66667C4.89159 7.66667 3.43689 6.17428 3.43689 4.33333C3.43689 2.49238 4.89159 1 6.68607 1C8.48051 1 9.93525 2.49238 9.93525 4.33333ZM7.97746 16L9.62236 15.6625C9.76581 15.6331 9.83753 15.6183 9.90439 15.5914C9.96376 15.5676 10.0201 15.5366 10.0724 15.4992C10.1313 15.457 10.1831 15.404 10.2865 15.2978L13.6635 11.8333C14.1122 11.3731 14.1122 10.6269 13.6635 10.1667C13.215 9.70642 12.4876 9.70642 12.0389 10.1667L8.6619 13.6312C8.55849 13.7373 8.50675 13.7903 8.46565 13.8508C8.42917 13.9044 8.39904 13.9623 8.37573 14.0232C8.34949 14.0918 8.33519 14.1654 8.30644 14.3125L7.97746 16Z" stroke="#CDD0D5" stroke-linecap="round" stroke-linejoin="round"/>
</svg>
